# xmcd
#
# Track frame offsets: 
#        150
#        18526
#        37447
#        52139
#        67904
#        84734
#        101125
#        122285
#        140150
#        153932
#
# Disc length: 2296 seconds
#
# Revision: 4
# Processed by: cddbd v1.5.2PL0 Copyright (c) Steve Scherf et al.
# Submitted via: ExactAudioCopyFreeDBPlugin 1.0
#
DISCID=8e08f60a
DTITLE=周笔畅 - 谁动了我的琴弦
DYEAR=2006
DGENRE=R&B
TTITLE0=号码
TTITLE1=别爱我 像爱个朋友
TTITLE2=喂！喂！
TTITLE3=谁动了我的琴弦
TTITLE4=那个那个
TTITLE5=毒蘑菇
TTITLE6=Silence
TTITLE7=风筝
TTITLE8=无人岛
TTITLE9=带眼镜的女孩
EXTD=
EXTT0=
EXTT1=
EXTT2=
EXTT3=
EXTT4=
EXTT5=
EXTT6=
EXTT7=
EXTT8=
EXTT9=
PLAYORDER=
